<svg id="visual" viewBox="0 0 960 540" width="960" height="540" xmlns="http://www.w3.org/2000/svg" xmlns:xlink="http://www.w3.org/1999/xlink" version="1.1"><g><g transform="translate(954 333)"><path d="M39.2 -12.4C44.4 3.1 37.7 22.9 23.2 33.9C8.6 44.9 -13.7 47.2 -26.2 37.7C-38.8 28.2 -41.6 6.9 -35.6 -9.8C-29.6 -26.5 -14.8 -38.6 1.1 -39C17 -39.4 34.1 -28 39.2 -12.4Z" stroke="#ccc" fill="none" stroke-width="6"></path></g><g transform="translate(2 385)"><path d="M6.2 -2.3C6.9 0.2 5.6 3 3.5 4.6C1.3 6.1 -1.7 6.3 -3.7 4.9C-5.7 3.5 -6.7 0.5 -5.9 -2.1C-5.2 -4.6 -2.6 -6.8 0.1 -6.8C2.8 -6.8 5.5 -4.8 6.2 -2.3Z" stroke="#ccc" fill="none" stroke-width="6"></path></g><g transform="translate(257 251)"><path d="M27.9 -8.4C31.7 2.4 27 16.6 17.6 23.3C8.2 29.9 -6.1 29 -16.2 21.7C-26.4 14.5 -32.4 1 -29 -9.4C-25.6 -19.7 -12.8 -27 -0.4 -26.9C12.1 -26.8 24.2 -19.3 27.9 -8.4Z" stroke="#ccc" fill="none" stroke-width="6"></path></g><g transform="translate(499 395)"><path d="M11.1 -3.8C12.5 0.7 10.4 6.1 6.7 8.6C3 11.2 -2.4 10.9 -6.2 8.2C-10 5.5 -12.4 0.4 -11.1 -3.9C-9.8 -8.2 -4.9 -11.7 0 -11.7C4.9 -11.7 9.7 -8.2 11.1 -3.8Z" stroke="#ccc" fill="none" stroke-width="6"></path></g><g transform="translate(188 422)"><path d="M34.6 -11.5C38.6 1 31.2 16.9 19.2 25.3C7.2 33.8 -9.4 34.8 -20.5 27C-31.6 19.2 -37.2 2.7 -32.9 -10.3C-28.5 -23.3 -14.3 -32.6 0.5 -32.8C15.3 -32.9 30.6 -23.9 34.6 -11.5Z" stroke="#ccc" fill="none" stroke-width="6"></path></g><g transform="translate(321 377)"><path d="M20.5 -7.4C23.2 1.6 19.7 12 12.1 17.9C4.4 23.7 -7.5 25.2 -14.1 20.1C-20.8 15.1 -22.3 3.7 -19.1 -6.1C-15.8 -15.8 -7.9 -24 0.5 -24.1C8.9 -24.3 17.8 -16.5 20.5 -7.4Z" stroke="#ccc" fill="none" stroke-width="6"></path></g><g transform="translate(829 131)"><path d="M15.9 -5C17.8 0.7 14.6 8.2 8.9 12.3C3.2 16.5 -4.9 17.2 -9.7 13.7C-14.5 10.1 -15.8 2.3 -13.6 -3.7C-11.5 -9.8 -5.7 -14 0.6 -14.2C7 -14.4 14 -10.6 15.9 -5Z" stroke="#ccc" fill="none" stroke-width="6"></path></g><g transform="translate(484 108)"><path d="M36.1 -11.5C40.8 2.8 34.6 20.9 21.8 30.2C9.1 39.6 -10.2 40.1 -23.3 30.8C-36.4 21.6 -43.3 2.6 -38.4 -11.9C-33.5 -26.5 -16.7 -36.8 -0.5 -36.6C15.7 -36.4 31.4 -25.9 36.1 -11.5Z" stroke="#ccc" fill="none" stroke-width="6"></path></g><g transform="translate(637 88)"><path d="M18.5 -5.7C21.1 1.9 18.2 11.6 12 15.9C5.8 20.3 -3.8 19.3 -9.7 14.7C-15.6 10.1 -17.8 1.8 -15.6 -5.4C-13.3 -12.5 -6.7 -18.5 0.6 -18.7C8 -18.9 15.9 -13.3 18.5 -5.7Z" stroke="#ccc" fill="none" stroke-width="6"></path></g><g transform="translate(160 128)"><path d="M26.6 -8.5C31.1 5.2 29 21.1 19.6 28.2C10.2 35.4 -6.5 33.6 -17.8 25.2C-29.1 16.8 -35 1.8 -31.1 -11C-27.3 -23.8 -13.6 -34.4 -1.3 -34C11.1 -33.6 22.1 -22.2 26.6 -8.5Z" stroke="#ccc" fill="none" stroke-width="6"></path></g><g transform="translate(605 280)"><path d="M12.5 -4.6C14.1 0.7 11.7 6.8 7.3 10C2.9 13.1 -3.5 13.4 -7.5 10.5C-11.5 7.6 -13.1 1.4 -11.4 -4C-9.8 -9.5 -4.9 -14.2 0.3 -14.3C5.5 -14.4 10.9 -9.9 12.5 -4.6Z" stroke="#ccc" fill="none" stroke-width="6"></path></g><g transform="translate(6 84)"><path d="M9.4 -3.1C10.4 0.2 8.3 4.4 5 6.8C1.6 9.2 -3 9.8 -6.1 7.7C-9.2 5.6 -10.8 0.8 -9.5 -2.8C-8.2 -6.4 -4.1 -8.7 0 -8.7C4.2 -8.7 8.4 -6.4 9.4 -3.1Z" stroke="#ccc" fill="none" stroke-width="6"></path></g><g transform="translate(756 527)"><path d="M34.5 -10.9C39.1 2.8 33.2 20.1 21.7 28.1C10.2 36 -6.8 34.4 -18 26C-29.2 17.5 -34.6 2.3 -30.7 -10.6C-26.7 -23.4 -13.4 -33.8 0.8 -34.1C15 -34.4 30 -24.5 34.5 -10.9Z" stroke="#ccc" fill="none" stroke-width="6"></path></g><g transform="translate(283 76)"><path d="M24.6 -8.6C27.4 0.7 22.1 11.9 13.6 18C5 24.1 -6.9 24.9 -15.1 19.3C-23.4 13.6 -28.1 1.5 -24.9 -8.2C-21.8 -17.9 -10.9 -25.2 0 -25.2C10.9 -25.2 21.7 -17.9 24.6 -8.6Z" stroke="#ccc" fill="none" stroke-width="6"></path></g><g transform="translate(858 446)"><path d="M19.3 -5.3C22.4 3 20.2 13.9 13.4 19C6.6 24.1 -4.9 23.3 -11.8 17.9C-18.7 12.5 -21.1 2.4 -18.4 -5.5C-15.6 -13.5 -7.8 -19.3 0.2 -19.4C8.2 -19.4 16.3 -13.7 19.3 -5.3Z" stroke="#ccc" fill="none" stroke-width="6"></path></g><g transform="translate(955 91)"><path d="M14.6 -5C16.6 1.3 14.2 8.7 9.2 12.2C4.3 15.7 -3.2 15.2 -8.3 11.5C-13.4 7.8 -16 0.9 -14.3 -5.2C-12.5 -11.3 -6.2 -16.6 0 -16.6C6.3 -16.6 12.6 -11.4 14.6 -5Z" stroke="#ccc" fill="none" stroke-width="6"></path></g><g transform="translate(109 295)"><path d="M36.8 -10.3C41.6 2.9 35.3 21.4 23.4 29.4C11.5 37.4 -6 34.9 -18.3 25.8C-30.6 16.7 -37.6 1.1 -33.7 -10.9C-29.8 -22.9 -14.9 -31.2 0.6 -31.4C16 -31.6 32 -23.6 36.8 -10.3Z" stroke="#ccc" fill="none" stroke-width="6"></path></g><g transform="translate(619 480)"><path d="M21.1 -6.9C24.2 2.8 21.5 14.3 14.4 19.5C7.2 24.6 -4.4 23.3 -12.4 17.3C-20.5 11.4 -25 0.9 -22.3 -8.1C-19.7 -17.1 -9.8 -24.7 -0.4 -24.5C9 -24.4 17.9 -16.6 21.1 -6.9Z" stroke="#ccc" fill="none" stroke-width="6"></path></g><g transform="translate(318 511)"><path d="M37.5 -13.4C41.5 0 32.6 16.4 19.7 25.4C6.8 34.4 -10.3 36 -22.7 27.8C-35.1 19.5 -43 1.5 -38.4 -12.8C-33.9 -27 -16.9 -37.6 -0.1 -37.5C16.8 -37.5 33.5 -26.9 37.5 -13.4Z" stroke="#ccc" fill="none" stroke-width="6"></path></g><g transform="translate(840 279)"><path d="M10.7 -3.6C12.2 1.2 10.6 6.8 6.6 10C2.5 13.1 -4 13.8 -8.2 10.9C-12.4 7.9 -14.2 1.4 -12.4 -3.7C-10.6 -8.7 -5.3 -12.3 -0.4 -12.2C4.6 -12.1 9.2 -8.3 10.7 -3.6Z" stroke="#ccc" fill="none" stroke-width="6"></path></g><g transform="translate(715 354)"><path d="M37.5 -9.9C43.2 5.4 38.7 26.3 26.4 34.8C14.1 43.4 -6 39.7 -20.5 29C-35 18.3 -43.9 0.5 -39.6 -12.9C-35.2 -26.3 -17.6 -35.3 -0.9 -35.1C15.9 -34.8 31.8 -25.1 37.5 -9.9Z" stroke="#ccc" fill="none" stroke-width="6"></path></g><g transform="translate(446 284)"><path d="M19.2 -6.5C21.8 1.8 18.7 11.7 11.8 16.8C5 21.9 -5.7 22.3 -13.3 17C-20.9 11.8 -25.5 1 -22.7 -7.4C-20 -15.9 -10 -22.1 -0.9 -21.8C8.3 -21.6 16.5 -14.8 19.2 -6.5Z" stroke="#ccc" fill="none" stroke-width="6"></path></g><g transform="translate(23 516)"><path d="M26.7 -8.3C30.6 3.3 27 17.8 18.2 24C9.3 30.2 -4.8 28.1 -14.8 20.8C-24.8 13.4 -30.6 0.8 -27.5 -9.9C-24.3 -20.5 -12.2 -29.2 -0.4 -29C11.4 -28.9 22.8 -20 26.7 -8.3Z" stroke="#ccc" fill="none" stroke-width="6"></path></g><g transform="translate(16 209)"><path d="M12.9 -3.9C14.7 1.1 12.5 7.7 7.9 11C3.4 14.3 -3.6 14.4 -7.9 11.2C-12.2 8 -13.8 1.5 -12 -3.5C-10.3 -8.5 -5.1 -12.1 0.2 -12.2C5.6 -12.2 11.2 -8.9 12.9 -3.9Z" stroke="#ccc" fill="none" stroke-width="6"></path></g><g transform="translate(406 4)"><path d="M6.6 -2.4C7.5 0.7 6.5 4.2 4.2 5.8C2 7.5 -1.6 7.3 -4.1 5.5C-6.5 3.8 -7.8 0.4 -6.9 -2.6C-6.1 -5.6 -3 -8.2 -0.1 -8.1C2.8 -8.1 5.7 -5.4 6.6 -2.4Z" stroke="#ccc" fill="none" stroke-width="6"></path></g><g transform="translate(721 204)"><path d="M40.5 -13.6C45.6 2.4 38 22.2 24.1 32C10.2 41.8 -10 41.7 -22.8 32.2C-35.6 22.7 -41 3.8 -35.9 -12.2C-30.9 -28.2 -15.4 -41.4 1.1 -41.7C17.7 -42.1 35.4 -29.7 40.5 -13.6Z" stroke="#ccc" fill="none" stroke-width="6"></path></g><g transform="translate(441 529)"><path d="M9.3 -2.7C10.6 1.1 9.4 6.2 6.3 8.3C3.2 10.5 -1.7 9.8 -4.9 7.3C-8.1 4.9 -9.6 0.6 -8.5 -2.9C-7.4 -6.4 -3.7 -9.2 0.1 -9.2C4 -9.3 7.9 -6.6 9.3 -2.7Z" stroke="#ccc" fill="none" stroke-width="6"></path></g><g transform="translate(819 3)"><path d="M4.1 -1.1C4.7 0.6 4.2 2.9 2.8 3.9C1.4 4.9 -0.9 4.6 -2.4 3.5C-3.9 2.4 -4.5 0.3 -4 -1.3C-3.5 -2.9 -1.7 -4.1 0 -4.1C1.7 -4.1 3.5 -2.9 4.1 -1.1Z" stroke="#ccc" fill="none" stroke-width="6"></path></g><g transform="translate(108 12)"><path d="M18.8 -6.4C21.2 1.3 17.8 10.5 11.2 15.3C4.6 20.1 -5.2 20.4 -11.2 15.9C-17.2 11.4 -19.4 2.2 -16.9 -5.6C-14.4 -13.4 -7.2 -19.8 0.5 -20C8.2 -20.1 16.4 -14.1 18.8 -6.4Z" stroke="#ccc" fill="none" stroke-width="6"></path></g><g transform="translate(370 181)"><path d="M36 -10.9C41.6 5.5 37.6 25.9 25.2 34.9C12.9 43.9 -7.8 41.6 -21.2 31.4C-34.7 21.1 -40.8 2.9 -36 -12.3C-31.2 -27.5 -15.6 -39.8 -0.2 -39.8C15.2 -39.7 30.4 -27.3 36 -10.9Z" stroke="#ccc" fill="none" stroke-width="6"></path></g></g></svg>